<?xml version="1.0" encoding="UTF-8"?><svg id="cat_running_Image" xmlns="http://www.w3.org/2000/svg" viewBox="0 0 95.76 93.36"><defs><style>.cls-1{fill:#b7b7b7;}.cls-1,.cls-2{stroke-width:0px;}.cls-2{fill:#686868;}</style></defs><path class="cls-2" d="M61,93.36c-.99-.95-2.02-1.87-2.96-2.86-.94-.98-1.92-1.63-3.3-2.1-2.43-.84-4.84.02-7.19-.51-.66-.15-1.34-.19-2-.34-4.9-1.17-7.38-4.57-6.99-9.64.05-.65.06-1.06-.77-1.09-5.1-.17-9.41-2.1-13-5.75-.79-.81-1.81-1.48-2.85-1.94-2.77-1.22-5.59-2.32-8.42-3.4-1.48-.56-3-.45-4.42.23-3.99,1.91-7.31-1.01-8.74-3.65-.54-1.01-.38-2.05.06-3.12.68-1.64,1.33-3.31,1.84-5.02.77-2.54,2.33-4.47,4.51-5.83,1-.62,1.12-1.26,1.06-2.33-.07-1.24.05-2.56.41-3.75.42-1.4,1.35-1.54,2.44-.58,1.5,1.32,2.95,2.69,4.47,3.97.49.41,1.15.67,1.77.88,3.01,1.02,6.11,1.81,9.03,3.04,2.62,1.1,5,1.15,7.41-.29,3.77-2.25,7.47-4.6,11.29-6.75,5.63-3.17,11.68-4.57,18.17-3.92,5.06.5,9.82,2,14.46,3.97.8.34,1.21.32,1.73-.45,5.63-8.36,8.98-17.53,9.51-27.63.17-3.22-.1-6.46-.18-9.68-.01-.6-.09-1.2-.09-1.8-.02-1.67.85-2.8,2.31-3,1.71-.23,3.12.56,3.42,2.25.64,3.65,1.36,7.32,1.61,11.01.64,9.29-.45,18.39-4.22,26.97-1.59,3.63-3.77,7.01-5.8,10.44-.57.97-.92,1.86-.9,2.99.06,3.82-.89,7.38-3.18,10.46-.86,1.16-1.94,2.28-3.17,3.02-1.84,1.1-2.59,2.64-2.69,4.62-.06,1.11-.03,2.24.06,3.35.21,2.67-.66,4.85-2.71,6.58-2.14,1.81-4.65,2.92-7.25,3.84-.88.31-1.27.57-.83,1.66,1.09,2.71.19,4.73-2.47,6.12h-1.44ZM93.95,17.42c-.22-2.86-.35-5.74-.68-8.59-.23-1.98-.68-3.93-1.14-5.87-.09-.38-.67-.64-1.03-.96-.29.38-.64.72-.86,1.14-.11.22-.04.55,0,.83.56,4.26.62,8.52.15,12.78-1.1,9.93-4.52,18.99-10.37,27.1-1.08,1.49-1.14,1.49-2.83.74-4.84-2.14-9.83-3.79-15.13-4.23-6.47-.54-12.39,1.19-17.91,4.5-3.42,2.05-6.81,4.15-10.26,6.15-2.96,1.71-5.96,1.56-9.04.12-2.05-.95-4.24-1.62-6.38-2.36-.5-.17-1.1-.05-1.63-.15-.62-.12-1.35-.19-1.8-.56-1.49-1.2-2.87-2.53-4.31-3.79-.19-.17-.47-.24-.71-.35-.08.25-.25.51-.24.75.06.99.1,2,.31,2.96.31,1.48.23,1.66-1.23,1.75-.23.01-.49.07-.67.19-2.06,1.35-3.66,3.01-4.16,5.58-.26,1.31-.67,2.66-1.33,3.81-.98,1.69-.87,1.98.44,3.58,1.53,1.86,3.28,2.32,5.5,1.45,2.39-.94,4.68-.61,6.96.39,1.46.64,2.9,1.36,4.43,1.8,2.97.86,5.36,2.58,7.58,4.63,2.08,1.92,4.48,3.25,7.29,3.57,3.04.35,6.1.65,9.16.67,2.31.01,3.93.81,4.93,2.86.91,1.86,1.65,3.82,2.71,5.59.67,1.11,1.75,1.98,2.7,2.91.16.16.59.05.89.07,0-.26.07-.55-.01-.78-.49-1.34-.12-2.47.62-3.62.32-.5.5-1.27.37-1.83-.68-2.96-1.5-5.88-2.25-8.82-.6-2.36,0-3.96,2.09-5.2.77-.45,1.69-.74,2.57-.87.85-.13,1.13-.42,1.16-1.28.1-3.11,1.71-5.33,4.29-6.89.66-.4,1.55-1.02,2.1-.06.6,1.06-.57,1.29-1.19,1.66-1.78,1.07-3.06,2.54-3.28,4.62-.43,4.18,1.01,7.72,4.14,10.49,2.09,1.85,1.73,4.55-.87,5.69-2.41,1.06-4.82,2.11-7.22,3.2-1.16.52-1.45,1.77-.64,2.65.65.71,1.45.56,2.22.27,2.49-.96,5.02-1.85,7.45-2.94,1.59-.71,3.09-1.65,4.53-2.64,1.39-.95,2.11-2.36,2.09-4.1-.02-1.56-.06-3.12.01-4.68.11-2.51,1.09-4.55,3.39-5.82.48-.27.93-.62,1.33-1.01,3.19-3.14,4.34-7.09,4.34-11.43,0-1.26.13-2.32,1.14-3.23.64-.57,1.08-1.38,1.56-2.11,5.99-9.22,8.64-19.39,8.74-30.34ZM55.79,70.4c.81,3.11,1.67,6.42,2.58,9.72.04.13.54.28.73.19,1.86-.81,3.71-1.63,5.53-2.53.87-.43,1.02-1.5.3-2.06-2.46-1.92-3.85-4.51-4.7-7.45-.08-.28-.26-.64-.49-.75-1.4-.69-3.97,1.06-3.96,2.88ZM42.65,76.76s0,.05,0,.07c-.24,0-.48,0-.72,0-1.49,0-1.8.26-1.73,1.7.16,2.87,1.2,5.28,4.08,6.32,1.51.55,3.16.76,4.75,1.04.46.08.97-.14,1.46-.23-.2-.42-.39-.84-.6-1.26-.12-.25-.28-.49-.38-.75-.3-.75-.7-1.05-1.62-.95-1.98.21-3.21-1.34-2.77-3.3.1-.46.25-.93.45-1.36.28-.61.06-.92-.54-1.01-.79-.11-1.58-.19-2.37-.28ZM63.42,89.41c-.28-2.16-.95-2.64-2.77-2-.41.14-.82.32-1.24.39-.71.13-.79.39-.31.92.45.5.81,1.09,1.32,1.52.47.39,1.25.97,1.59.81.59-.28.95-1.06,1.41-1.63ZM47.56,79.38c-.12.02-.24.04-.36.07.05.35.06.72.17,1.05.02.07.4.02.61.03-.14-.38-.28-.76-.42-1.14Z"/><path class="cls-1" d="M93.95,17.42c-.1,10.95-2.75,21.12-8.74,30.34-.48.73-.92,1.54-1.56,2.11-1.01.91-1.14,1.97-1.14,3.23,0,4.34-1.16,8.29-4.34,11.43-.39.39-.84.74-1.33,1.01-2.29,1.27-3.28,3.3-3.39,5.82-.07,1.56-.03,3.12-.01,4.68.02,1.74-.7,3.15-2.09,4.1-1.44.98-2.94,1.92-4.53,2.64-2.43,1.09-4.96,1.98-7.45,2.94-.77.3-1.57.44-2.22-.27-.81-.88-.52-2.13.64-2.65,2.4-1.08,4.81-2.14,7.22-3.2,2.6-1.14,2.96-3.84.87-5.69-3.13-2.77-4.58-6.31-4.14-10.49.22-2.07,1.5-3.55,3.28-4.62.62-.37,1.79-.6,1.19-1.66-.55-.96-1.44-.33-2.1.06-2.58,1.57-4.19,3.78-4.29,6.89-.03.85-.3,1.15-1.16,1.28-.88.13-1.8.42-2.57.87-2.09,1.23-2.69,2.83-2.09,5.2.75,2.94,1.56,5.87,2.25,8.82.13.56-.05,1.34-.37,1.83-.74,1.15-1.11,2.28-.62,3.62.08.23.01.52.01.78-.3-.02-.73.09-.89-.07-.95-.93-2.04-1.8-2.7-2.91-1.06-1.77-1.8-3.73-2.71-5.59-1-2.04-2.62-2.84-4.93-2.86-3.06-.02-6.12-.32-9.16-.67-2.82-.32-5.21-1.65-7.29-3.57-2.21-2.05-4.61-3.78-7.58-4.63-1.52-.44-2.97-1.16-4.43-1.8-2.28-1-4.56-1.34-6.96-.39-2.21.87-3.97.41-5.5-1.45-1.31-1.6-1.42-1.89-.44-3.58.66-1.15,1.08-2.5,1.33-3.81.5-2.57,2.1-4.23,4.16-5.58.19-.12.45-.17.67-.19,1.46-.09,1.54-.27,1.23-1.75-.2-.97-.24-1.97-.31-2.96-.02-.24.15-.5.24-.75.24.12.52.18.71.35,1.44,1.26,2.82,2.59,4.31,3.79.46.37,1.18.44,1.8.56.53.11,1.13-.02,1.63.15,2.15.74,4.33,1.4,6.38,2.36,3.08,1.43,6.08,1.59,9.04-.12,3.45-2,6.84-4.1,10.26-6.15,5.52-3.31,11.44-5.04,17.91-4.5,5.31.45,10.29,2.1,15.13,4.23,1.69.75,1.75.75,2.83-.74,5.86-8.11,9.27-17.17,10.37-27.1.47-4.26.42-8.53-.15-12.78-.04-.28-.11-.61,0-.83.22-.41.56-.76.86-1.14.35.32.94.58,1.03.96.46,1.94.91,3.9,1.14,5.87.33,2.85.46,5.72.68,8.59ZM9.32,53.27c-.87.58-1.64.98-2.24,1.55-.22.21-.2,1,.02,1.25.22.24.85.22,1.26.15.45-.08.92-.28,1.26-.57.37-.31.89-.8.85-1.17-.04-.39-.65-.72-1.16-1.21Z"/><path class="cls-1" d="M42.65,76.76c.79.09,1.58.17,2.37.28.6.09.82.39.54,1.01-.2.43-.34.9-.45,1.36-.44,1.96.79,3.51,2.77,3.3.92-.1,1.33.2,1.62.95.1.26.26.49.38.75.2.42.4.84.6,1.26-.49.08-1,.31-1.46.23-1.6-.28-3.24-.49-4.75-1.04-2.88-1.04-3.92-3.46-4.08-6.32-.08-1.45.24-1.7,1.73-1.7.24,0,.48,0,.72,0,0-.02,0-.05,0-.07Z"/><path class="cls-1" d="M63.42,89.41c-.46.57-.81,1.35-1.41,1.63-.34.16-1.12-.42-1.59-.81-.51-.42-.87-1.02-1.32-1.52-.48-.52-.4-.79.31-.92.42-.07.83-.25,1.24-.39,1.82-.64,2.49-.16,2.77,2Z"/><path class="cls-2" d="M9.32,53.27c.5.49,1.11.82,1.16,1.21.04.36-.47.86-.85,1.17-.35.29-.82.49-1.26.57-.42.07-1.04.09-1.26-.15-.22-.25-.24-1.04-.02-1.25.6-.58,1.38-.98,2.24-1.55Z"/></svg>