<?xml version="1.0" encoding="UTF-8"?><svg id="Layer_1" xmlns="http://www.w3.org/2000/svg" viewBox="0 0 103.58 54.45"><defs><style>.cls-1{fill:#686868;stroke-width:0px;}</style></defs><path class="cls-1" d="M49.93,22.5c0,5.09-3.24,9.59-8.07,11.2-1.28.42-2.12,1.73-2.06,3.18l.69,16.18-3,.14-.69-16.2c-.12-2.78,1.57-5.31,4.11-6.15,3.6-1.2,6.02-4.56,6.02-8.36s-2.65-7.42-6.45-8.48c-.71-.2-1.18-.89-1.09-1.62.04-.36.06-.68.06-.98,0-4.64-3.78-8.42-8.42-8.42-1.88,0-3.66.61-5.15,1.77-.54.42-1.3.42-1.84,0-1.49-1.16-3.27-1.77-5.15-1.77-4.64,0-8.42,3.78-8.42,8.42,0,.33.03.66.06.98.08.73-.38,1.42-1.09,1.62-3.8,1.05-6.45,4.54-6.45,8.48s2.42,7.16,6.02,8.36c2.54.85,4.23,3.38,4.11,6.15l-.65,15.39h-3s.66-15.52.66-15.52c.06-1.45-.78-2.76-2.06-3.18C3.24,32.09,0,27.59,0,22.5s3.02-9.22,7.48-10.97c0-.03,0-.07,0-.1C7.48,5.12,12.6,0,18.9,0c2.17,0,4.25.6,6.07,1.75,1.82-1.15,3.9-1.75,6.07-1.75,6.3,0,11.42,5.12,11.42,11.42,0,.03,0,.07,0,.1,4.46,1.76,7.48,6.11,7.48,10.97ZM14.58,22.38c0,3.02-2.04,5.47-4.55,5.47s-4.55-2.45-4.55-5.47,2.04-5.47,4.55-5.47,4.55,2.45,4.55,5.47ZM35.35,22.38c0-3.02,2.04-5.47,4.55-5.47s4.55,2.45,4.55,5.47-2.04,5.47-4.55,5.47-4.55-2.45-4.55-5.47ZM13.46,11.72c0-3.2,2.14-5.8,4.77-5.8s4.77,2.6,4.77,5.8-2.14,5.8-4.77,5.8-4.77-2.6-4.77-5.8ZM36.46,11.72c0,3.2-2.14,5.8-4.77,5.8s-4.77-2.6-4.77-5.8,2.14-5.8,4.77-5.8,4.77,2.6,4.77,5.8ZM35.67,28.43c0,3.47-2.29,6.3-5.1,6.3-.83,0-1.64-.24-2.36-.7-.97.77-2.09,1.19-3.24,1.19s-2.27-.41-3.24-1.19c-.72.46-1.52.7-2.36.7-2.81,0-5.1-2.83-5.1-6.3s2.26-6.26,5.05-6.3c1.09-2.86,3.22-4.64,5.66-4.64s4.56,1.78,5.65,4.64c2.79.04,5.05,2.85,5.05,6.3Z"/><path class="cls-1" d="M103.58,23.75c0,5.09-3.24,9.59-8.07,11.2-1.28.42-2.12,1.73-2.06,3.18l.69,16.18-3,.14-.69-16.2c-.12-2.78,1.57-5.31,4.11-6.15,3.6-1.2,6.02-4.56,6.02-8.36s-2.65-7.42-6.45-8.48c-.71-.2-1.18-.89-1.09-1.62.04-.36.06-.68.06-.98,0-4.64-3.78-8.42-8.42-8.42-1.88,0-3.66.61-5.15,1.77-.54.42-1.3.42-1.84,0-1.49-1.16-3.27-1.77-5.15-1.77-4.64,0-8.42,3.78-8.42,8.42,0,.33.03.66.06.98.08.73-.38,1.42-1.09,1.62-3.8,1.05-6.45,4.54-6.45,8.48s2.42,7.16,6.02,8.36c2.54.85,4.23,3.38,4.11,6.15l-.65,15.39h-3s.66-15.52.66-15.52c.06-1.45-.78-2.76-2.06-3.18-4.83-1.61-8.07-6.11-8.07-11.2s3.02-9.22,7.48-10.97c0-.03,0-.07,0-.1,0-6.3,5.12-11.42,11.42-11.42,2.17,0,4.25.6,6.07,1.75,1.82-1.15,3.9-1.75,6.07-1.75,6.3,0,11.42,5.12,11.42,11.42,0,.03,0,.07,0,.1,4.46,1.76,7.48,6.11,7.48,10.97ZM68.23,23.63c0,3.02-2.04,5.47-4.55,5.47s-4.55-2.45-4.55-5.47,2.04-5.47,4.55-5.47,4.55,2.45,4.55,5.47ZM89,23.63c0-3.02,2.04-5.47,4.55-5.47s4.55,2.45,4.55,5.47-2.04,5.47-4.55,5.47-4.55-2.45-4.55-5.47ZM67.11,12.97c0-3.2,2.14-5.8,4.77-5.8s4.77,2.6,4.77,5.8-2.14,5.8-4.77,5.8-4.77-2.6-4.77-5.8ZM90.11,12.97c0,3.2-2.14,5.8-4.77,5.8s-4.77-2.6-4.77-5.8,2.14-5.8,4.77-5.8,4.77,2.6,4.77,5.8ZM89.32,29.67c0,3.47-2.29,6.3-5.1,6.3-.83,0-1.64-.24-2.36-.7-.97.77-2.09,1.19-3.24,1.19s-2.27-.41-3.24-1.19c-.72.46-1.52.7-2.36.7-2.81,0-5.1-2.83-5.1-6.3s2.26-6.26,5.05-6.3c1.09-2.86,3.22-4.64,5.66-4.64s4.56,1.78,5.65,4.64c2.79.04,5.05,2.85,5.05,6.3Z"/></svg>